<svg width="25" height="25" viewBox="0 0 25 25" fill="none" xmlns="http://www.w3.org/2000/svg">
<g id="Behance">
<g id="Behance_2">
<rect id="Rectangle" width="25" height="25" rx="12.5" fill="#FE6751"/>
<path id="Vector" d="M9.60031 7.26392C10.0814 7.26392 10.5254 7.30092 10.9325 7.41194C11.3395 7.48594 11.6726 7.63396 11.9686 7.81899C12.2647 8.00401 12.4867 8.26304 12.6347 8.59609C12.7827 8.92913 12.8567 9.33618 12.8567 9.78024C12.8567 10.2983 12.7457 10.7424 12.4867 11.0754C12.2647 11.4085 11.8946 11.7045 11.4505 11.9265C12.0796 12.1115 12.5607 12.4446 12.8567 12.8886C13.1528 13.3327 13.3378 13.8878 13.3378 14.5169C13.3378 15.0349 13.2268 15.479 13.0418 15.849C12.8567 16.2191 12.5607 16.5521 12.2277 16.7741C11.8946 16.9962 11.4876 17.1812 11.0435 17.2922C10.5994 17.4032 10.1554 17.4772 9.71132 17.4772H4.75269V7.26392H9.60031ZM9.30427 11.4085C9.71133 11.4085 10.0444 11.2974 10.3034 11.1124C10.5624 10.9274 10.6734 10.5943 10.6734 10.1873C10.6734 9.96526 10.6364 9.74324 10.5624 9.59522C10.4884 9.4472 10.3774 9.33618 10.2294 9.22517C10.0814 9.15116 9.93335 9.07715 9.74833 9.04015C9.56331 9.00314 9.37828 9.00314 9.15625 9.00314H7.00998V11.4085H9.30427ZM9.41529 15.775C9.63732 15.775 9.85934 15.738 10.0444 15.701C10.2294 15.664 10.4144 15.59 10.5624 15.479C10.7105 15.368 10.8215 15.2569 10.9325 15.0719C11.0065 14.8869 11.0805 14.6649 11.0805 14.4058C11.0805 13.8878 10.9325 13.5177 10.6364 13.2587C10.3404 13.0367 9.93335 12.9256 9.45229 12.9256H7.00998V15.775H9.41529ZM16.5572 15.738C16.8532 16.034 17.2973 16.1821 17.8894 16.1821C18.2964 16.1821 18.6665 16.0711 18.9625 15.886C19.2586 15.664 19.4436 15.442 19.5176 15.2199H21.3308C21.0348 16.1081 20.5907 16.7371 19.9987 17.1442C19.4066 17.5142 18.7035 17.7363 17.8524 17.7363C17.2603 17.7363 16.7422 17.6253 16.2612 17.4402C15.7801 17.2552 15.4101 16.9962 15.077 16.6261C14.744 16.2931 14.4849 15.886 14.3369 15.405C14.1519 14.9239 14.0779 14.4058 14.0779 13.8138C14.0779 13.2587 14.1519 12.7406 14.3369 12.2596C14.5219 11.7785 14.781 11.3714 15.114 11.0014C15.4471 10.6684 15.8541 10.3723 16.2982 10.1873C16.7792 10.0023 17.2603 9.89126 17.8524 9.89126C18.4815 9.89126 19.0365 10.0023 19.5176 10.2613C19.9987 10.5203 20.3687 10.8164 20.6647 11.2604C20.9608 11.6675 21.1828 12.1485 21.3308 12.6666C21.4048 13.1847 21.4418 13.7027 21.4048 14.2948H16.0391C16.0391 14.8869 16.2612 15.442 16.5572 15.738ZM18.8885 11.8525C18.6295 11.5935 18.2224 11.4455 17.7414 11.4455C17.4083 11.4455 17.1493 11.5195 16.9273 11.6305C16.7052 11.7415 16.5572 11.8895 16.4092 12.0375C16.2612 12.1856 16.1872 12.3706 16.1502 12.5556C16.1132 12.7406 16.0761 12.8886 16.0761 13.0367H19.4066C19.3326 12.4816 19.1475 12.1115 18.8885 11.8525ZM15.6321 7.96701H19.7766V8.96614H15.6321V7.96701Z" fill="white"/>
</g>
</g>
</svg>
