<svg width="25" height="25" viewBox="0 0 25 25" fill="none" xmlns="http://www.w3.org/2000/svg">
<g id="GitHub">
<g id="GitHub_2">
<rect id="Rectangle" width="25" height="25" rx="12.5" fill="#FE6751"/>
<path id="Exclude" fill-rule="evenodd" clip-rule="evenodd" d="M16.3658 24.39C15.1483 24.7859 13.8489 25 12.4999 25C11.15 25 9.84979 24.7857 8.63156 24.3892C9.19431 24.4566 9.40225 24.0902 9.40225 23.7739C9.40225 23.6362 9.3999 23.3933 9.39676 23.0683C9.39312 22.6923 9.38841 22.2065 9.38506 21.6466C5.90772 22.4026 5.17413 19.9697 5.17413 19.9697C4.60616 18.525 3.78663 18.1403 3.78663 18.1403C2.65147 17.364 3.87256 17.3797 3.87256 17.3797C5.12647 17.4681 5.78663 18.6689 5.78663 18.6689C6.90225 20.5804 8.71241 20.0285 9.42491 19.7079C9.53819 18.8996 9.86163 18.3482 10.2187 18.0356C7.44288 17.7198 4.52491 16.6472 4.52491 11.854C4.52491 10.4882 5.01163 9.37189 5.81163 8.49701C5.68272 8.18047 5.25381 6.90923 5.9335 5.18693C5.9335 5.18693 6.9835 4.85072 9.371 6.46907C10.3687 6.19146 11.4374 6.05324 12.5007 6.04759C13.5624 6.05304 14.6319 6.19146 15.6304 6.46907C18.0163 4.85072 19.064 5.18693 19.064 5.18693C19.746 6.90923 19.3171 8.18047 19.1882 8.49701C19.9898 9.37189 20.4733 10.4882 20.4733 11.854C20.4733 16.6588 17.5507 17.7167 14.7663 18.0262C15.2147 18.4125 15.6148 19.1754 15.6148 20.3427C15.6148 21.4609 15.6078 22.4344 15.6031 23.0794C15.6008 23.399 15.5991 23.638 15.5991 23.7741C15.5991 24.0919 15.802 24.459 16.3658 24.39Z" fill="white"/>
</g>
</g>
</svg>
